<?xml version="1.0" encoding="UTF-8"?>
<svg xmlns="http://www.w3.org/2000/svg" xmlns:xlink="http://www.w3.org/1999/xlink" width="296.199" height="295.485" viewBox="0 0 296.199 295.485">
<defs>
<g>
<g id="glyph-0-0">
<path d="M 3.3125 -3 C 3.375 -3.265625 3.609375 -4.171875 4.296875 -4.171875 C 4.359375 -4.171875 4.59375 -4.171875 4.796875 -4.046875 C 4.515625 -4 4.328125 -3.75 4.328125 -3.515625 C 4.328125 -3.34375 4.4375 -3.15625 4.703125 -3.15625 C 4.921875 -3.15625 5.234375 -3.34375 5.234375 -3.734375 C 5.234375 -4.25 4.65625 -4.390625 4.3125 -4.390625 C 3.734375 -4.390625 3.390625 -3.859375 3.265625 -3.640625 C 3.015625 -4.296875 2.484375 -4.390625 2.203125 -4.390625 C 1.15625 -4.390625 0.59375 -3.109375 0.59375 -2.859375 C 0.59375 -2.765625 0.703125 -2.765625 0.71875 -2.765625 C 0.796875 -2.765625 0.828125 -2.78125 0.84375 -2.875 C 1.1875 -3.921875 1.84375 -4.171875 2.171875 -4.171875 C 2.359375 -4.171875 2.71875 -4.078125 2.71875 -3.515625 C 2.71875 -3.203125 2.546875 -2.53125 2.171875 -1.140625 C 2.015625 -0.53125 1.671875 -0.109375 1.234375 -0.109375 C 1.171875 -0.109375 0.9375 -0.109375 0.734375 -0.234375 C 0.984375 -0.28125 1.203125 -0.5 1.203125 -0.78125 C 1.203125 -1.046875 0.984375 -1.125 0.828125 -1.125 C 0.53125 -1.125 0.28125 -0.859375 0.28125 -0.546875 C 0.28125 -0.09375 0.78125 0.109375 1.21875 0.109375 C 1.875 0.109375 2.234375 -0.59375 2.265625 -0.640625 C 2.390625 -0.28125 2.75 0.109375 3.34375 0.109375 C 4.359375 0.109375 4.921875 -1.171875 4.921875 -1.421875 C 4.921875 -1.515625 4.84375 -1.515625 4.8125 -1.515625 C 4.71875 -1.515625 4.703125 -1.484375 4.6875 -1.40625 C 4.359375 -0.34375 3.671875 -0.109375 3.359375 -0.109375 C 2.96875 -0.109375 2.8125 -0.421875 2.8125 -0.765625 C 2.8125 -0.984375 2.875 -1.203125 2.984375 -1.640625 Z M 3.3125 -3 "/>
</g>
<g id="glyph-0-1">
<path d="M 4.828125 -3.78125 C 4.875 -3.921875 4.875 -3.9375 4.875 -4.015625 C 4.875 -4.1875 4.734375 -4.28125 4.578125 -4.28125 C 4.484375 -4.28125 4.328125 -4.21875 4.234375 -4.078125 C 4.21875 -4.03125 4.140625 -3.71875 4.09375 -3.53125 C 4.03125 -3.28125 3.953125 -3.015625 3.890625 -2.75 L 3.453125 -0.953125 C 3.40625 -0.8125 2.984375 -0.109375 2.328125 -0.109375 C 1.8125 -0.109375 1.703125 -0.546875 1.703125 -0.921875 C 1.703125 -1.375 1.875 -1.984375 2.21875 -2.859375 C 2.375 -3.265625 2.421875 -3.375 2.421875 -3.578125 C 2.421875 -4.03125 2.09375 -4.390625 1.59375 -4.390625 C 0.65625 -4.390625 0.28125 -2.953125 0.28125 -2.859375 C 0.28125 -2.765625 0.390625 -2.765625 0.40625 -2.765625 C 0.5 -2.765625 0.515625 -2.78125 0.5625 -2.9375 C 0.828125 -3.875 1.234375 -4.171875 1.5625 -4.171875 C 1.65625 -4.171875 1.8125 -4.171875 1.8125 -3.859375 C 1.8125 -3.609375 1.71875 -3.34375 1.65625 -3.15625 C 1.25 -2.109375 1.078125 -1.546875 1.078125 -1.078125 C 1.078125 -0.1875 1.703125 0.109375 2.28125 0.109375 C 2.671875 0.109375 3.015625 -0.0625 3.296875 -0.34375 C 3.15625 0.171875 3.046875 0.671875 2.640625 1.1875 C 2.390625 1.53125 2 1.8125 1.546875 1.8125 C 1.40625 1.8125 0.96875 1.78125 0.796875 1.40625 C 0.953125 1.40625 1.078125 1.40625 1.21875 1.28125 C 1.328125 1.1875 1.421875 1.0625 1.421875 0.875 C 1.421875 0.5625 1.15625 0.53125 1.046875 0.53125 C 0.828125 0.53125 0.5 0.6875 0.5 1.171875 C 0.5 1.671875 0.9375 2.03125 1.546875 2.03125 C 2.578125 2.03125 3.59375 1.140625 3.875 0.015625 Z M 4.828125 -3.78125 "/>
</g>
<g id="glyph-1-0">
<path d="M 6.828125 -3.25 C 6.96875 -3.25 7.171875 -3.25 7.171875 -3.453125 C 7.171875 -3.640625 6.96875 -3.640625 6.84375 -3.640625 L 0.890625 -3.640625 C 0.75 -3.640625 0.5625 -3.640625 0.5625 -3.453125 C 0.5625 -3.25 0.75 -3.25 0.890625 -3.25 Z M 6.84375 -1.328125 C 6.96875 -1.328125 7.171875 -1.328125 7.171875 -1.515625 C 7.171875 -1.71875 6.96875 -1.71875 6.828125 -1.71875 L 0.890625 -1.71875 C 0.75 -1.71875 0.5625 -1.71875 0.5625 -1.515625 C 0.5625 -1.328125 0.75 -1.328125 0.890625 -1.328125 Z M 6.84375 -1.328125 "/>
</g>
<g id="glyph-1-1">
<path d="M 4.46875 -2 C 4.46875 -3.1875 3.640625 -4.171875 2.578125 -4.171875 C 2.09375 -4.171875 1.671875 -4.015625 1.3125 -3.671875 L 1.3125 -5.609375 C 1.515625 -5.546875 1.84375 -5.46875 2.15625 -5.46875 C 3.375 -5.46875 4.078125 -6.375 4.078125 -6.515625 C 4.078125 -6.5625 4.046875 -6.625 3.96875 -6.625 C 3.96875 -6.625 3.9375 -6.625 3.890625 -6.59375 C 3.703125 -6.5 3.203125 -6.296875 2.546875 -6.296875 C 2.140625 -6.296875 1.6875 -6.375 1.21875 -6.578125 C 1.140625 -6.609375 1.125 -6.609375 1.109375 -6.609375 C 1 -6.609375 1 -6.53125 1 -6.375 L 1 -3.421875 C 1 -3.25 1 -3.171875 1.140625 -3.171875 C 1.21875 -3.171875 1.234375 -3.203125 1.265625 -3.265625 C 1.375 -3.421875 1.75 -3.953125 2.546875 -3.953125 C 3.078125 -3.953125 3.3125 -3.5 3.40625 -3.3125 C 3.5625 -2.953125 3.578125 -2.5625 3.578125 -2.0625 C 3.578125 -1.71875 3.578125 -1.125 3.34375 -0.703125 C 3.09375 -0.3125 2.734375 -0.0625 2.28125 -0.0625 C 1.546875 -0.0625 0.984375 -0.59375 0.8125 -1.171875 C 0.84375 -1.15625 0.875 -1.15625 0.984375 -1.15625 C 1.3125 -1.15625 1.484375 -1.40625 1.484375 -1.640625 C 1.484375 -1.875 1.3125 -2.125 0.984375 -2.125 C 0.84375 -2.125 0.5 -2.0625 0.5 -1.59375 C 0.5 -0.75 1.1875 0.21875 2.296875 0.21875 C 3.453125 0.21875 4.46875 -0.734375 4.46875 -2 Z M 4.46875 -2 "/>
</g>
</g>
<clipPath id="clip-0">
<path clip-rule="nonzero" d="M 17 0.140625 L 151 0.140625 L 151 294.828125 L 17 294.828125 Z M 17 0.140625 "/>
</clipPath>
</defs>
<path fill="none" stroke-width="0.3985" stroke-linecap="butt" stroke-linejoin="miter" stroke="rgb(0%, 0%, 0%)" stroke-opacity="1" stroke-miterlimit="10" d="M -90.709613 -0.000258986 L 180.960573 -0.000258986 " transform="matrix(0.997303, 0, 0, -0.997303, 96.316535, 198.429429)"/>
<path fill="none" stroke-width="0.31879" stroke-linecap="round" stroke-linejoin="round" stroke="rgb(0%, 0%, 0%)" stroke-opacity="1" stroke-miterlimit="10" d="M -1.196045 1.593884 C -1.094208 0.994612 -0.00141708 0.0976614 0.300178 -0.000258986 C -0.00141708 -0.0981793 -1.094208 -0.99513 -1.196045 -1.594402 " transform="matrix(0.997303, 0, 0, -0.997303, 276.790476, 198.429429)"/>
<g fill="rgb(0%, 0%, 0%)" fill-opacity="1">
<use xlink:href="#glyph-0-0" x="280.755763" y="200.568644"/>
</g>
<path fill="none" stroke-width="0.3985" stroke-linecap="butt" stroke-linejoin="miter" stroke="rgb(0%, 0%, 0%)" stroke-opacity="1" stroke-miterlimit="10" d="M -0.000128855 -90.709743 L -0.000128855 112.929309 " transform="matrix(0.997303, 0, 0, -0.997303, 96.316535, 198.429429)"/>
<path fill="none" stroke-width="0.31879" stroke-linecap="round" stroke-linejoin="round" stroke="rgb(0%, 0%, 0%)" stroke-opacity="1" stroke-miterlimit="10" d="M -1.194699 1.594272 C -1.096779 0.994999 -0.0000713646 0.0980492 0.297606 0.000128855 C -0.0000713646 -0.0977915 -1.096779 -0.994742 -1.194699 -1.594014 " transform="matrix(0, -0.997303, -0.997303, 0, 96.316535, 85.804616)"/>
<g fill="rgb(0%, 0%, 0%)" fill-opacity="1">
<use xlink:href="#glyph-0-1" x="93.702604" y="79.906945"/>
</g>
<path fill="none" stroke-width="0.3985" stroke-linecap="butt" stroke-linejoin="miter" stroke="rgb(0%, 0%, 0%)" stroke-opacity="1" stroke-dasharray="2.98883 2.98883" stroke-miterlimit="10" d="M 113.387706 -90.709743 L 113.387706 113.387576 " transform="matrix(0.997303, 0, 0, -0.997303, 96.316535, 198.429429)"/>
<g fill="rgb(0%, 0%, 0%)" fill-opacity="1">
<use xlink:href="#glyph-0-0" x="197.450043" y="81.838721"/>
</g>
<g fill="rgb(0%, 0%, 0%)" fill-opacity="1">
<use xlink:href="#glyph-1-0" x="205.889221" y="81.838721"/>
</g>
<g fill="rgb(0%, 0%, 0%)" fill-opacity="1">
<use xlink:href="#glyph-1-1" x="216.379366" y="81.838721"/>
</g>
<path fill-rule="nonzero" fill="rgb(100%, 100%, 100%)" fill-opacity="1" stroke-width="0.3985" stroke-linecap="butt" stroke-linejoin="miter" stroke="rgb(0%, 0%, 0%)" stroke-opacity="1" stroke-miterlimit="10" d="M 46.950715 90.709225 C 46.950715 91.590509 46.233938 92.303369 45.356572 92.303369 C 44.475289 92.303369 43.762429 91.590509 43.762429 90.709225 C 43.762429 89.827942 44.475289 89.115082 45.356572 89.115082 C 46.233938 89.115082 46.950715 89.827942 46.950715 90.709225 Z M 46.950715 90.709225 " transform="matrix(0.997303, 0, 0, -0.997303, 96.316535, 198.429429)"/>
<path fill-rule="nonzero" fill="rgb(0%, 0%, 0%)" fill-opacity="1" stroke-width="0.3985" stroke-linecap="butt" stroke-linejoin="miter" stroke="rgb(0%, 0%, 0%)" stroke-opacity="1" stroke-miterlimit="10" d="M 46.950715 22.678091 C 46.950715 23.559374 46.233938 24.272234 45.356572 24.272234 C 44.475289 24.272234 43.762429 23.559374 43.762429 22.678091 C 43.762429 21.796808 44.475289 21.083948 45.356572 21.083948 C 46.233938 21.083948 46.950715 21.796808 46.950715 22.678091 Z M 46.950715 22.678091 " transform="matrix(0.997303, 0, 0, -0.997303, 96.316535, 198.429429)"/>
<g clip-path="url(#clip-0)">
<path fill="none" stroke-width="0.79701" stroke-linecap="butt" stroke-linejoin="miter" stroke="rgb(0%, 0%, 0%)" stroke-opacity="1" stroke-miterlimit="10" d="M -68.031263 192.757885 L -66.911054 187.176426 L -65.786929 181.649802 L -64.66672 176.178013 L -63.542595 170.76106 L -62.422386 165.398943 L -61.298261 160.09166 L -60.178052 154.84313 L -59.053926 149.649435 L -57.933718 144.510576 L -56.809592 139.426552 L -55.689384 134.397364 L -54.565258 129.426927 L -53.445049 124.511326 L -52.320924 119.646644 L -51.200715 114.840714 L -50.07659 110.093536 L -48.956381 105.397276 L -47.832256 100.759769 L -46.712047 96.17318 L -45.587922 91.645344 L -44.467713 87.17626 L -43.343587 82.758094 L -42.223379 78.394764 L -41.099253 74.090186 L -39.979045 69.840443 L -38.854919 65.645536 L -37.73471 61.505464 L -36.610585 57.420227 L -35.490376 53.393743 L -34.366251 49.422094 L -33.246042 45.501364 L -32.121917 41.643302 L -31.001708 37.83616 L -29.877582 34.083852 L -28.757374 30.390297 L -27.633248 26.751577 L -26.51304 23.167693 L -25.388914 19.638644 L -24.268705 16.16443 L -23.14458 12.745052 L -22.024371 9.384426 L -20.900246 6.078636 L -19.780037 2.82768 L -18.655912 -0.368439 L -17.535703 -3.505807 L -16.411578 -6.592256 L -15.291369 -9.619953 L -14.167243 -12.592814 L -13.047035 -15.510841 L -11.922909 -18.374031 L -10.802701 -21.17847 L -9.678575 -23.93199 L -8.558366 -26.626757 L -7.434241 -29.26669 L -6.314032 -31.851787 L -5.189907 -34.382048 L -4.069698 -36.853557 L -2.945573 -39.270231 L -1.825364 -41.635987 L -0.701238 -43.939073 L 0.41897 -46.191241 L 1.543096 -48.388573 L 2.663304 -50.527153 L 3.78743 -52.614815 L 4.907638 -54.643725 L 6.031764 -56.617799 L 7.151973 -58.53312 L 8.276098 -60.397524 L 9.396307 -62.203175 L 10.520432 -63.95399 L 11.640641 -65.649971 L 12.764766 -67.291115 L 13.884975 -68.877425 L 15.009101 -70.404982 L 16.129309 -71.881621 L 17.253435 -73.299507 L 18.373643 -74.662558 L 19.497769 -75.966857 L 20.617978 -77.220238 L 21.742103 -78.414866 L 22.862312 -79.558575 L 23.986437 -80.643533 L 25.106646 -81.673655 L 26.230771 -82.645024 L 27.35098 -83.565476 L 28.475105 -84.427175 L 29.595314 -85.234038 L 30.71944 -85.986066 L 31.839648 -86.683259 L 32.963774 -87.325617 L 34.083982 -87.909222 L 35.208108 -88.441908 L 36.328317 -88.915843 L 37.452442 -89.334942 L 38.572651 -89.695289 L 39.696776 -90.004717 L 40.816985 -90.255393 L 41.94111 -90.455151 L 43.065236 -90.596156 " transform="matrix(0.997303, 0, 0, -0.997303, 96.316535, 198.429429)"/>
</g>
<path fill="none" stroke-width="0.79701" stroke-linecap="butt" stroke-linejoin="miter" stroke="rgb(0%, 0%, 0%)" stroke-opacity="1" stroke-miterlimit="10" d="M 45.356572 -22.678609 L 46.018513 -22.455351 L 46.684372 -22.228176 L 47.346313 -22.004917 L 48.012171 -21.773825 L 48.674113 -21.542733 L 49.339971 -21.307725 L 50.001913 -21.072716 L 50.667771 -20.83379 L 51.329712 -20.590948 L 51.995571 -20.348105 L 52.657512 -20.101346 L 53.989229 -19.599994 L 54.65117 -19.345401 L 55.317029 -19.086891 L 55.97897 -18.828382 L 56.644828 -18.562038 L 57.30677 -18.295695 L 57.972628 -18.025435 L 58.63457 -17.751258 L 59.300428 -17.477081 L 59.962369 -17.19507 L 60.628228 -16.91306 L 61.290169 -16.623216 L 61.956028 -16.333371 L 62.621886 -16.03961 L 63.283827 -15.741933 L 63.949686 -15.436421 L 64.611627 -15.13091 L 65.277485 -14.821481 L 65.939427 -14.504219 L 66.605285 -14.186958 L 67.267227 -13.861862 L 67.933085 -13.53285 L 68.595026 -13.196004 L 69.260885 -12.859158 L 69.922826 -12.514478 L 70.588685 -12.165882 L 71.250626 -11.809452 L 71.916484 -11.453022 L 72.582343 -11.084841 L 73.244284 -10.712744 L 73.910142 -10.33673 L 74.572084 -9.952882 L 75.237942 -9.557284 L 75.899884 -9.161686 L 76.565742 -8.754337 L 77.227683 -8.343072 L 77.893542 -7.923973 L 78.555483 -7.49704 L 79.221342 -7.058357 L 79.883283 -6.61184 L 80.549141 -6.15749 L 81.211083 -5.695306 L 81.876941 -5.225288 L 82.542799 -4.739603 L 83.204741 -4.246085 L 83.870599 -3.744733 L 84.532541 -3.227713 L 85.198399 -2.698944 L 85.86034 -2.158423 L 86.526199 -1.606153 L 87.18814 -1.038215 L 87.853999 -0.454609 L 88.51594 0.144663 L 89.181798 0.755686 L 89.84374 1.386293 L 90.509598 2.036484 L 91.17154 2.706259 L 91.837398 3.395618 L 92.503256 4.104562 L 93.165198 4.837006 L 93.831056 5.592951 L 94.492997 6.376313 L 95.158856 7.187094 L 95.820797 8.029209 L 96.486656 8.902658 L 97.148597 9.811359 L 97.814455 10.759228 L 98.476397 11.746265 L 99.142255 12.780304 L 99.804197 13.861344 L 100.470055 14.99722 L 101.135913 16.195765 L 101.797855 17.456979 L 102.463713 18.800446 L 103.125655 20.218332 L 103.791513 21.738056 L 104.453454 23.363534 L 105.119313 25.114349 L 105.781254 27.010087 L 106.447112 29.082081 L 107.109054 31.361667 L 107.774912 33.899762 L 108.436854 36.743369 L 109.102712 39.970823 L 109.764653 43.664378 L 110.430512 47.929788 L 111.09637 54.173189 " transform="matrix(0.997303, 0, 0, -0.997303, 96.316535, 198.429429)"/>
</svg>
