<?xml version="1.0" encoding="UTF-8"?>
<svg xmlns="http://www.w3.org/2000/svg" xmlns:xlink="http://www.w3.org/1999/xlink" width="296.199" height="331.14" viewBox="0 0 296.199 331.14">
<defs>
<g>
<g id="glyph-0-0">
<path d="M 3.3125 -3 C 3.375 -3.265625 3.609375 -4.171875 4.296875 -4.171875 C 4.359375 -4.171875 4.59375 -4.171875 4.796875 -4.046875 C 4.515625 -4 4.328125 -3.75 4.328125 -3.515625 C 4.328125 -3.34375 4.4375 -3.15625 4.703125 -3.15625 C 4.921875 -3.15625 5.234375 -3.34375 5.234375 -3.734375 C 5.234375 -4.25 4.65625 -4.390625 4.3125 -4.390625 C 3.734375 -4.390625 3.390625 -3.859375 3.265625 -3.640625 C 3.015625 -4.296875 2.484375 -4.390625 2.203125 -4.390625 C 1.15625 -4.390625 0.59375 -3.109375 0.59375 -2.859375 C 0.59375 -2.765625 0.703125 -2.765625 0.71875 -2.765625 C 0.796875 -2.765625 0.828125 -2.78125 0.84375 -2.875 C 1.1875 -3.921875 1.84375 -4.171875 2.171875 -4.171875 C 2.359375 -4.171875 2.71875 -4.078125 2.71875 -3.515625 C 2.71875 -3.203125 2.546875 -2.53125 2.171875 -1.140625 C 2.015625 -0.53125 1.671875 -0.109375 1.234375 -0.109375 C 1.171875 -0.109375 0.9375 -0.109375 0.734375 -0.234375 C 0.984375 -0.28125 1.203125 -0.5 1.203125 -0.78125 C 1.203125 -1.046875 0.984375 -1.125 0.828125 -1.125 C 0.53125 -1.125 0.28125 -0.859375 0.28125 -0.546875 C 0.28125 -0.09375 0.78125 0.109375 1.21875 0.109375 C 1.875 0.109375 2.234375 -0.59375 2.265625 -0.640625 C 2.390625 -0.28125 2.75 0.109375 3.34375 0.109375 C 4.359375 0.109375 4.921875 -1.171875 4.921875 -1.421875 C 4.921875 -1.515625 4.84375 -1.515625 4.8125 -1.515625 C 4.71875 -1.515625 4.703125 -1.484375 4.6875 -1.40625 C 4.359375 -0.34375 3.671875 -0.109375 3.359375 -0.109375 C 2.96875 -0.109375 2.8125 -0.421875 2.8125 -0.765625 C 2.8125 -0.984375 2.875 -1.203125 2.984375 -1.640625 Z M 3.3125 -3 "/>
</g>
<g id="glyph-0-1">
<path d="M 4.828125 -3.78125 C 4.875 -3.921875 4.875 -3.9375 4.875 -4.015625 C 4.875 -4.1875 4.734375 -4.28125 4.578125 -4.28125 C 4.484375 -4.28125 4.328125 -4.21875 4.234375 -4.078125 C 4.21875 -4.03125 4.140625 -3.71875 4.09375 -3.53125 C 4.03125 -3.28125 3.953125 -3.015625 3.890625 -2.75 L 3.453125 -0.953125 C 3.40625 -0.8125 2.984375 -0.109375 2.328125 -0.109375 C 1.8125 -0.109375 1.703125 -0.546875 1.703125 -0.921875 C 1.703125 -1.375 1.875 -1.984375 2.21875 -2.859375 C 2.375 -3.265625 2.421875 -3.375 2.421875 -3.578125 C 2.421875 -4.03125 2.09375 -4.390625 1.59375 -4.390625 C 0.65625 -4.390625 0.28125 -2.953125 0.28125 -2.859375 C 0.28125 -2.765625 0.390625 -2.765625 0.40625 -2.765625 C 0.5 -2.765625 0.515625 -2.78125 0.5625 -2.9375 C 0.828125 -3.875 1.234375 -4.171875 1.5625 -4.171875 C 1.65625 -4.171875 1.8125 -4.171875 1.8125 -3.859375 C 1.8125 -3.609375 1.71875 -3.34375 1.65625 -3.15625 C 1.25 -2.109375 1.078125 -1.546875 1.078125 -1.078125 C 1.078125 -0.1875 1.703125 0.109375 2.28125 0.109375 C 2.671875 0.109375 3.015625 -0.0625 3.296875 -0.34375 C 3.15625 0.171875 3.046875 0.671875 2.640625 1.1875 C 2.390625 1.53125 2 1.8125 1.546875 1.8125 C 1.40625 1.8125 0.96875 1.78125 0.796875 1.40625 C 0.953125 1.40625 1.078125 1.40625 1.21875 1.28125 C 1.328125 1.1875 1.421875 1.0625 1.421875 0.875 C 1.421875 0.5625 1.15625 0.53125 1.046875 0.53125 C 0.828125 0.53125 0.5 0.6875 0.5 1.171875 C 0.5 1.671875 0.9375 2.03125 1.546875 2.03125 C 2.578125 2.03125 3.59375 1.140625 3.875 0.015625 Z M 4.828125 -3.78125 "/>
</g>
<g id="glyph-1-0">
<path d="M 6.828125 -3.25 C 6.96875 -3.25 7.171875 -3.25 7.171875 -3.453125 C 7.171875 -3.640625 6.96875 -3.640625 6.84375 -3.640625 L 0.890625 -3.640625 C 0.75 -3.640625 0.5625 -3.640625 0.5625 -3.453125 C 0.5625 -3.25 0.75 -3.25 0.890625 -3.25 Z M 6.84375 -1.328125 C 6.96875 -1.328125 7.171875 -1.328125 7.171875 -1.515625 C 7.171875 -1.71875 6.96875 -1.71875 6.828125 -1.71875 L 0.890625 -1.71875 C 0.75 -1.71875 0.5625 -1.71875 0.5625 -1.515625 C 0.5625 -1.328125 0.75 -1.328125 0.890625 -1.328125 Z M 6.84375 -1.328125 "/>
</g>
<g id="glyph-1-1">
<path d="M 4.46875 -2 C 4.46875 -3.1875 3.640625 -4.171875 2.578125 -4.171875 C 2.09375 -4.171875 1.671875 -4.015625 1.3125 -3.671875 L 1.3125 -5.609375 C 1.515625 -5.546875 1.84375 -5.46875 2.15625 -5.46875 C 3.375 -5.46875 4.078125 -6.375 4.078125 -6.515625 C 4.078125 -6.5625 4.046875 -6.625 3.96875 -6.625 C 3.96875 -6.625 3.9375 -6.625 3.890625 -6.59375 C 3.703125 -6.5 3.203125 -6.296875 2.546875 -6.296875 C 2.140625 -6.296875 1.6875 -6.375 1.21875 -6.578125 C 1.140625 -6.609375 1.125 -6.609375 1.109375 -6.609375 C 1 -6.609375 1 -6.53125 1 -6.375 L 1 -3.421875 C 1 -3.25 1 -3.171875 1.140625 -3.171875 C 1.21875 -3.171875 1.234375 -3.203125 1.265625 -3.265625 C 1.375 -3.421875 1.75 -3.953125 2.546875 -3.953125 C 3.078125 -3.953125 3.3125 -3.5 3.40625 -3.3125 C 3.5625 -2.953125 3.578125 -2.5625 3.578125 -2.0625 C 3.578125 -1.71875 3.578125 -1.125 3.34375 -0.703125 C 3.09375 -0.3125 2.734375 -0.0625 2.28125 -0.0625 C 1.546875 -0.0625 0.984375 -0.59375 0.8125 -1.171875 C 0.84375 -1.15625 0.875 -1.15625 0.984375 -1.15625 C 1.3125 -1.15625 1.484375 -1.40625 1.484375 -1.640625 C 1.484375 -1.875 1.3125 -2.125 0.984375 -2.125 C 0.84375 -2.125 0.5 -2.0625 0.5 -1.59375 C 0.5 -0.75 1.1875 0.21875 2.296875 0.21875 C 3.453125 0.21875 4.46875 -0.734375 4.46875 -2 Z M 4.46875 -2 "/>
</g>
</g>
<clipPath id="clip-0">
<path clip-rule="nonzero" d="M 17 30 L 151 30 L 151 330.265625 L 17 330.265625 Z M 17 30 "/>
</clipPath>
</defs>
<path fill="none" stroke-width="0.3985" stroke-linecap="butt" stroke-linejoin="miter" stroke="rgb(0%, 0%, 0%)" stroke-opacity="1" stroke-miterlimit="10" d="M -90.709613 0.00028299 L 180.960573 0.00028299 " transform="matrix(0.997303, 0, 0, -0.997303, 96.316535, 131.976845)"/>
<path fill="none" stroke-width="0.31879" stroke-linecap="round" stroke-linejoin="round" stroke="rgb(0%, 0%, 0%)" stroke-opacity="1" stroke-miterlimit="10" d="M -1.196045 1.594426 C -1.094208 0.995154 -0.00141708 0.0982033 0.300178 0.00028299 C -0.00141708 -0.101554 -1.094208 -0.994588 -1.196045 -1.59386 " transform="matrix(0.997303, 0, 0, -0.997303, 276.790476, 131.976845)"/>
<g fill="rgb(0%, 0%, 0%)" fill-opacity="1">
<use xlink:href="#glyph-0-0" x="280.755763" y="134.115062"/>
</g>
<path fill="none" stroke-width="0.3985" stroke-linecap="butt" stroke-linejoin="miter" stroke="rgb(0%, 0%, 0%)" stroke-opacity="1" stroke-miterlimit="10" d="M -0.000128855 -90.709201 L -0.000128855 112.929851 " transform="matrix(0.997303, 0, 0, -0.997303, 96.316535, 131.976845)"/>
<path fill="none" stroke-width="0.31879" stroke-linecap="round" stroke-linejoin="round" stroke="rgb(0%, 0%, 0%)" stroke-opacity="1" stroke-miterlimit="10" d="M -1.194158 1.594272 C -1.096237 0.994999 0.000470612 0.0980492 0.298148 0.000128855 C 0.000470612 -0.0977915 -1.096237 -0.994742 -1.194158 -1.594014 " transform="matrix(0, -0.997303, -0.997303, 0, 96.316535, 19.352032)"/>
<g fill="rgb(0%, 0%, 0%)" fill-opacity="1">
<use xlink:href="#glyph-0-1" x="93.702604" y="13.454361"/>
</g>
<path fill="none" stroke-width="0.3985" stroke-linecap="butt" stroke-linejoin="miter" stroke="rgb(0%, 0%, 0%)" stroke-opacity="1" stroke-dasharray="2.98883 2.98883" stroke-miterlimit="10" d="M 113.387706 -90.709201 L 113.387706 113.388118 " transform="matrix(0.997303, 0, 0, -0.997303, 96.316535, 131.976845)"/>
<g fill="rgb(0%, 0%, 0%)" fill-opacity="1">
<use xlink:href="#glyph-0-0" x="197.450043" y="15.386137"/>
</g>
<g fill="rgb(0%, 0%, 0%)" fill-opacity="1">
<use xlink:href="#glyph-1-0" x="205.889221" y="15.386137"/>
</g>
<g fill="rgb(0%, 0%, 0%)" fill-opacity="1">
<use xlink:href="#glyph-1-1" x="216.379366" y="15.386137"/>
</g>
<path fill-rule="nonzero" fill="rgb(100%, 100%, 100%)" fill-opacity="1" stroke-width="0.3985" stroke-linecap="butt" stroke-linejoin="miter" stroke="rgb(0%, 0%, 0%)" stroke-opacity="1" stroke-miterlimit="10" d="M 46.950715 90.709767 C 46.950715 91.591051 46.233938 92.303911 45.356572 92.303911 C 44.475289 92.303911 43.762429 91.591051 43.762429 90.709767 C 43.762429 89.828484 44.475289 89.115624 45.356572 89.115624 C 46.233938 89.115624 46.950715 89.828484 46.950715 90.709767 Z M 46.950715 90.709767 " transform="matrix(0.997303, 0, 0, -0.997303, 96.316535, 131.976845)"/>
<path fill-rule="nonzero" fill="rgb(0%, 0%, 0%)" fill-opacity="1" stroke-width="0.3985" stroke-linecap="butt" stroke-linejoin="miter" stroke="rgb(0%, 0%, 0%)" stroke-opacity="1" stroke-miterlimit="10" d="M 46.950715 22.678633 C 46.950715 23.556 46.233938 24.272776 45.356572 24.272776 C 44.475289 24.272776 43.762429 23.556 43.762429 22.678633 C 43.762429 21.79735 44.475289 21.08449 45.356572 21.08449 C 46.233938 21.08449 46.950715 21.79735 46.950715 22.678633 Z M 46.950715 22.678633 " transform="matrix(0.997303, 0, 0, -0.997303, 96.316535, 131.976845)"/>
<g clip-path="url(#clip-0)">
<path fill="none" stroke-width="0.79701" stroke-linecap="butt" stroke-linejoin="miter" stroke="rgb(0%, 0%, 0%)" stroke-opacity="1" stroke-miterlimit="10" d="M -68.031263 -192.757861 L -66.911054 -187.176402 L -65.786929 -181.649778 L -64.66672 -176.177989 L -63.542595 -170.761036 L -62.422386 -165.398919 L -61.298261 -160.091636 L -60.178052 -154.843106 L -59.053926 -149.649411 L -57.933718 -144.510552 L -56.809592 -139.426528 L -55.689384 -134.39734 L -54.565258 -129.426903 L -53.445049 -124.511302 L -52.320924 -119.64662 L -51.200715 -114.84069 L -50.07659 -110.093512 L -48.956381 -105.397252 L -47.832256 -100.759745 L -46.712047 -96.173156 L -45.587922 -91.64532 L -44.467713 -87.176236 L -43.343587 -82.75807 L -42.223379 -78.39474 L -41.099253 -74.090162 L -39.979045 -69.840419 L -38.854919 -65.645512 L -37.73471 -61.50544 L -36.610585 -57.420203 L -35.490376 -53.393719 L -34.366251 -49.42207 L -33.246042 -45.50134 L -32.121917 -41.643278 L -31.001708 -37.836136 L -29.877582 -34.083828 L -28.757374 -30.390273 L -27.633248 -26.751553 L -26.51304 -23.167669 L -25.388914 -19.63862 L -24.268705 -16.164406 L -23.14458 -12.745028 L -22.024371 -9.384402 L -20.900246 -6.078612 L -19.780037 -2.827656 L -18.655912 0.368463 L -17.535703 3.505831 L -16.411578 6.59228 L -15.291369 9.619977 L -14.167243 12.592838 L -13.047035 15.510865 L -11.922909 18.374055 L -10.802701 21.178494 L -9.678575 23.932014 L -8.558366 26.626781 L -7.434241 29.266714 L -6.314032 31.851811 L -5.189907 34.382072 L -4.069698 36.853581 L -2.945573 39.270255 L -1.825364 41.636011 L -0.701238 43.939097 L 0.41897 46.191265 L 1.543096 48.388597 L 2.663304 50.527177 L 3.78743 52.614839 L 4.907638 54.643749 L 6.031764 56.617823 L 7.151973 58.533144 L 8.276098 60.397548 L 9.396307 62.203199 L 10.520432 63.954014 L 11.640641 65.649995 L 12.764766 67.291139 L 13.884975 68.877449 L 15.009101 70.405006 L 16.129309 71.881645 L 17.253435 73.299531 L 18.373643 74.662582 L 19.497769 75.966881 L 20.617978 77.220262 L 21.742103 78.41489 L 22.862312 79.558599 L 23.986437 80.643557 L 25.106646 81.673679 L 26.230771 82.645048 L 27.35098 83.5655 L 28.475105 84.427199 L 29.595314 85.234062 L 30.71944 85.98609 L 31.839648 86.683283 L 32.963774 87.325641 L 34.083982 87.909246 L 35.208108 88.441932 L 36.328317 88.915867 L 37.452442 89.334966 L 38.572651 89.695313 L 39.696776 90.004741 L 40.816985 90.255417 L 41.94111 90.455175 L 43.065236 90.59618 " transform="matrix(0.997303, 0, 0, -0.997303, 96.316535, 131.976845)"/>
</g>
<path fill="none" stroke-width="0.79701" stroke-linecap="butt" stroke-linejoin="miter" stroke="rgb(0%, 0%, 0%)" stroke-opacity="1" stroke-miterlimit="10" d="M 45.356572 22.678633 L 46.018513 22.455375 L 46.684372 22.2282 L 47.346313 22.004941 L 48.012171 21.773849 L 48.674113 21.542757 L 49.339971 21.307749 L 50.001913 21.07274 L 50.667771 20.833814 L 51.329712 20.590972 L 51.995571 20.348129 L 52.657512 20.10137 L 53.989229 19.600018 L 54.65117 19.345425 L 55.317029 19.086915 L 55.97897 18.828406 L 56.644828 18.562062 L 57.30677 18.295719 L 57.972628 18.025459 L 58.63457 17.751282 L 59.300428 17.477105 L 59.962369 17.195094 L 60.628228 16.913084 L 61.290169 16.62324 L 61.956028 16.333395 L 62.621886 16.039634 L 63.283827 15.741957 L 63.949686 15.436445 L 64.611627 15.130934 L 65.277485 14.821505 L 65.939427 14.504243 L 66.605285 14.186982 L 67.267227 13.861886 L 67.933085 13.532874 L 68.595026 13.196028 L 69.260885 12.859182 L 69.922826 12.514502 L 70.588685 12.165906 L 71.250626 11.809476 L 71.916484 11.453046 L 72.582343 11.084865 L 73.244284 10.712768 L 73.910142 10.336754 L 74.572084 9.952906 L 75.237942 9.557308 L 75.899884 9.16171 L 76.565742 8.754361 L 77.227683 8.343096 L 77.893542 7.923997 L 78.555483 7.497064 L 79.221342 7.058381 L 79.883283 6.611864 L 80.549141 6.157514 L 81.211083 5.69533 L 81.876941 5.221395 L 82.542799 4.739627 L 83.204741 4.246109 L 83.870599 3.744757 L 84.532541 3.227737 L 85.198399 2.698968 L 85.86034 2.158447 L 86.526199 1.606177 L 87.18814 1.038239 L 87.853999 0.454633 L 88.51594 -0.144639 L 89.181798 -0.755662 L 89.84374 -1.386269 L 90.509598 -2.03646 L 91.17154 -2.706235 L 91.837398 -3.395594 L 92.503256 -4.104538 L 93.165198 -4.836982 L 93.831056 -5.592927 L 94.492997 -6.376289 L 95.158856 -7.18707 L 95.820797 -8.029185 L 96.486656 -8.902634 L 97.148597 -9.811335 L 97.814455 -10.759204 L 98.476397 -11.746241 L 99.142255 -12.78028 L 99.804197 -13.86132 L 100.470055 -14.997196 L 101.135913 -16.195741 L 101.797855 -17.456955 L 102.463713 -18.800422 L 103.125655 -20.218308 L 103.791513 -21.738032 L 104.453454 -23.36351 L 105.119313 -25.114325 L 105.781254 -27.010063 L 106.447112 -29.082057 L 107.109054 -31.361643 L 107.774912 -33.899738 L 108.436854 -36.743345 L 109.102712 -39.970799 L 109.764653 -43.664354 L 110.430512 -47.929764 L 111.09637 -54.173165 " transform="matrix(0.997303, 0, 0, -0.997303, 96.316535, 131.976845)"/>
</svg>
